<svg width="125" height="24" viewBox="0 0 125 24" fill="none" xmlns="http://www.w3.org/2000/svg">
<path d="M14.5586 15.5977C14.5586 15.9258 14.4961 16.2383 14.3711 16.5352C14.2461 16.8242 14.0742 17.0781 13.8555 17.2969C13.6367 17.5156 13.3789 17.6875 13.082 17.8125C12.793 17.9375 12.4844 18 12.1562 18H8.55859V21.1172H6.15625V18H2.55859C2.23047 18 1.91797 17.9375 1.62109 17.8125C1.33203 17.6875 1.07812 17.5156 0.859375 17.2969C0.640625 17.0781 0.46875 16.8242 0.34375 16.5352C0.21875 16.2383 0.15625 15.9258 0.15625 15.5977V3.59766C0.15625 3.26953 0.21875 2.96094 0.34375 2.67188C0.46875 2.375 0.640625 2.12109 0.859375 1.91016C1.07812 1.69141 1.33203 1.51953 1.62109 1.39453C1.91797 1.26172 2.23047 1.19531 2.55859 1.19531H12.1562C12.4844 1.19531 12.793 1.26172 13.082 1.39453C13.3789 1.51953 13.6367 1.69141 13.8555 1.91016C14.0742 2.12109 14.2461 2.375 14.3711 2.67188C14.4961 2.96094 14.5586 3.26953 14.5586 3.59766V15.5977ZM8.55859 13.6523V15.5977H12.1562V3.59766H2.55859V15.5977H6.15625V13.6523H8.55859ZM18.6484 5.51953H20.9453V15.6914H27.3789V5.51953H29.6875V18H27.3789V15.8906C27.3555 16.1797 27.2773 16.4531 27.1445 16.7109C27.0117 16.9688 26.8398 17.1953 26.6289 17.3906C26.4258 17.5781 26.1914 17.7266 25.9258 17.8359C25.6602 17.9453 25.3789 18 25.082 18H20.9453C20.6328 18 20.3359 17.9414 20.0547 17.8242C19.7734 17.6992 19.5273 17.5352 19.3164 17.332C19.1133 17.1211 18.9492 16.875 18.8242 16.5938C18.707 16.3125 18.6484 16.0117 18.6484 15.6914V5.51953ZM35.957 5.51953V18H33.6484V5.51953H35.957ZM33.5312 0.714844H36.0742V3.11719H33.5312V0.714844ZM39.6836 5.51953H50.0078V6.14062L43.3633 15.6914H50.0078V18H39.4492V17.3789L46.0938 7.82812H39.6836V5.51953ZM63.2148 18H60.8125V1.19531H63.2148L73.3164 14.2266V1.19531H75.7188V18H73.3164L63.2148 4.96875V18ZM82.2227 5.51953V18H79.9141V5.51953H82.2227ZM79.7969 0.714844H82.3398V3.11719H79.7969V0.714844ZM86.1953 7.82812C86.1953 7.50781 86.2539 7.20703 86.3711 6.92578C86.4961 6.64453 86.6602 6.40234 86.8633 6.19922C87.0742 5.98828 87.3203 5.82422 87.6016 5.70703C87.8828 5.58203 88.1797 5.51953 88.4922 5.51953H92.6289C92.9336 5.51953 93.2227 5.57812 93.4961 5.69531C93.7695 5.80469 94.0078 5.96094 94.2109 6.16406C94.4219 6.35938 94.5898 6.59375 94.7148 6.86719C94.8477 7.13281 94.918 7.41797 94.9258 7.72266V5.51953H97.2344V20.7305C97.2344 21.0508 97.1719 21.3516 97.0469 21.6328C96.9297 21.9141 96.7656 22.1562 96.5547 22.3594C96.3516 22.5703 96.1094 22.7344 95.8281 22.8516C95.5469 22.9766 95.2461 23.0391 94.9258 23.0391H87.6367V20.7305H94.9258V17.5195H88.4922C88.1797 17.5195 87.8828 17.4609 87.6016 17.3438C87.3203 17.2188 87.0742 17.0547 86.8633 16.8516C86.6602 16.6406 86.4961 16.3945 86.3711 16.1133C86.2539 15.832 86.1953 15.5312 86.1953 15.2109V7.82812ZM94.9258 15.2109V7.82812H88.4922V15.2109H94.9258ZM112.117 18H109.809V7.82812H103.375V18H101.078V0.714844H103.375V7.72266C103.391 7.41797 103.461 7.13281 103.586 6.86719C103.711 6.59375 103.875 6.35938 104.078 6.16406C104.289 5.96094 104.531 5.80469 104.805 5.69531C105.078 5.57812 105.371 5.51953 105.684 5.51953H109.809C110.129 5.51953 110.43 5.58203 110.711 5.70703C110.992 5.82422 111.234 5.98828 111.438 6.19922C111.648 6.40234 111.812 6.64453 111.93 6.92578C112.055 7.20703 112.117 7.50781 112.117 7.82812V18ZM115.234 5.51953H118.281V1.67578H120.59V5.51953H124.691V7.82812H120.59V15.6914H124.691V18H120.59C120.277 18 119.98 17.9414 119.699 17.8242C119.418 17.6992 119.172 17.5352 118.961 17.332C118.75 17.1211 118.582 16.875 118.457 16.5938C118.34 16.3125 118.281 16.0117 118.281 15.6914V7.82812H115.234V5.51953Z" fill="white"/>
</svg>
